<mxfile host="app.diagrams.net" modified="2024-04-21T21:01:42.308Z" agent="5.0 (Windows NT 10.0; Win64; x64) AppleWebKit/537.36 (KHTML, like Gecko) Chrome/124.0.0.0 Safari/537.36" etag="r40nBHiUfjmoShyqY041" version="20.3.1" type="github">
  <diagram id="6a731a19-8d31-9384-78a2-239565b7b9f0" name="Page-1">
    <mxGraphModel dx="3671" dy="1540" grid="1" gridSize="10" guides="1" tooltips="1" connect="1" arrows="1" fold="1" page="1" pageScale="1" pageWidth="827" pageHeight="1169" background="none" math="0" shadow="0">
      <root>
        <mxCell id="0" />
        <mxCell id="1" parent="0" />
        <mxCell id="2kSQM9Ln6HK6JpiItvms-2257" value="" style="endArrow=none;html=1;rounded=0;" edge="1" parent="1">
          <mxGeometry width="50" height="50" relative="1" as="geometry">
            <mxPoint x="-590" y="530" as="sourcePoint" />
            <mxPoint x="1720" y="500.51063829787245" as="targetPoint" />
          </mxGeometry>
        </mxCell>
        <mxCell id="2kSQM9Ln6HK6JpiItvms-2259" value="" style="whiteSpace=wrap;html=1;aspect=fixed;" vertex="1" parent="1">
          <mxGeometry x="-580" y="740" width="400" height="400" as="geometry" />
        </mxCell>
        <mxCell id="2kSQM9Ln6HK6JpiItvms-2260" value="" style="rounded=0;whiteSpace=wrap;html=1;rotation=90;" vertex="1" parent="1">
          <mxGeometry x="30" y="750" width="250" height="110" as="geometry" />
        </mxCell>
        <mxCell id="2kSQM9Ln6HK6JpiItvms-2261" value="" style="rounded=0;whiteSpace=wrap;html=1;rotation=90;" vertex="1" parent="1">
          <mxGeometry x="210" y="740" width="250" height="110" as="geometry" />
        </mxCell>
        <mxCell id="2kSQM9Ln6HK6JpiItvms-2262" value="" style="rounded=0;whiteSpace=wrap;html=1;rotation=90;" vertex="1" parent="1">
          <mxGeometry x="390" y="740" width="250" height="110" as="geometry" />
        </mxCell>
        <mxCell id="2kSQM9Ln6HK6JpiItvms-2263" value="" style="rounded=0;whiteSpace=wrap;html=1;rotation=90;" vertex="1" parent="1">
          <mxGeometry x="577" y="740" width="250" height="110" as="geometry" />
        </mxCell>
        <mxCell id="2kSQM9Ln6HK6JpiItvms-2264" value="" style="rounded=0;whiteSpace=wrap;html=1;rotation=90;" vertex="1" parent="1">
          <mxGeometry x="164" y="1050" width="250" height="110" as="geometry" />
        </mxCell>
        <mxCell id="2kSQM9Ln6HK6JpiItvms-2265" value="" style="rounded=0;whiteSpace=wrap;html=1;rotation=90;" vertex="1" parent="1">
          <mxGeometry x="414" y="1059" width="250" height="110" as="geometry" />
        </mxCell>
        <mxCell id="2kSQM9Ln6HK6JpiItvms-2266" value="" style="whiteSpace=wrap;html=1;aspect=fixed;" vertex="1" parent="1">
          <mxGeometry x="980" y="590" width="220" height="220" as="geometry" />
        </mxCell>
        <mxCell id="2kSQM9Ln6HK6JpiItvms-2267" value="" style="whiteSpace=wrap;html=1;aspect=fixed;" vertex="1" parent="1">
          <mxGeometry x="980" y="910" width="240" height="240" as="geometry" />
        </mxCell>
        <mxCell id="2kSQM9Ln6HK6JpiItvms-2271" value="" style="shape=mxgraph.cisco.computers_and_peripherals.pc;sketch=0;html=1;pointerEvents=1;dashed=0;fillColor=#036897;strokeColor=#ffffff;strokeWidth=2;verticalLabelPosition=bottom;verticalAlign=top;align=center;outlineConnect=0;" vertex="1" parent="1">
          <mxGeometry x="-560" y="760" width="78" height="70" as="geometry" />
        </mxCell>
        <mxCell id="2kSQM9Ln6HK6JpiItvms-2272" value="" style="shape=mxgraph.cisco.computers_and_peripherals.pc;sketch=0;html=1;pointerEvents=1;dashed=0;fillColor=#036897;strokeColor=#ffffff;strokeWidth=2;verticalLabelPosition=bottom;verticalAlign=top;align=center;outlineConnect=0;" vertex="1" parent="1">
          <mxGeometry x="-560" y="890" width="78" height="70" as="geometry" />
        </mxCell>
        <mxCell id="2kSQM9Ln6HK6JpiItvms-2273" value="" style="shape=mxgraph.cisco.modems_and_phones.ip_phone;sketch=0;html=1;pointerEvents=1;dashed=0;fillColor=#036897;strokeColor=#ffffff;strokeWidth=2;verticalLabelPosition=bottom;verticalAlign=top;align=center;outlineConnect=0;" vertex="1" parent="1">
          <mxGeometry x="-480" y="970" width="200" height="140" as="geometry" />
        </mxCell>
        <mxCell id="2kSQM9Ln6HK6JpiItvms-2274" value="" style="shape=mxgraph.cisco.wireless.wlan_controller;sketch=0;html=1;pointerEvents=1;dashed=0;fillColor=#036897;strokeColor=#ffffff;strokeWidth=2;verticalLabelPosition=bottom;verticalAlign=top;align=center;outlineConnect=0;" vertex="1" parent="1">
          <mxGeometry x="-330" y="772" width="80" height="46" as="geometry" />
        </mxCell>
        <mxCell id="2kSQM9Ln6HK6JpiItvms-2275" value="" style="shape=mxgraph.cisco.wireless.wlan_controller;sketch=0;html=1;pointerEvents=1;dashed=0;fillColor=#036897;strokeColor=#ffffff;strokeWidth=2;verticalLabelPosition=bottom;verticalAlign=top;align=center;outlineConnect=0;" vertex="1" parent="1">
          <mxGeometry x="115" y="860" width="80" height="38" as="geometry" />
        </mxCell>
        <mxCell id="2kSQM9Ln6HK6JpiItvms-2276" value="" style="shape=mxgraph.cisco.wireless.wlan_controller;sketch=0;html=1;pointerEvents=1;dashed=0;fillColor=#036897;strokeColor=#ffffff;strokeWidth=2;verticalLabelPosition=bottom;verticalAlign=top;align=center;outlineConnect=0;" vertex="1" parent="1">
          <mxGeometry x="300" y="850" width="65" height="40" as="geometry" />
        </mxCell>
        <mxCell id="2kSQM9Ln6HK6JpiItvms-2277" value="" style="shape=mxgraph.cisco.wireless.wlan_controller;sketch=0;html=1;pointerEvents=1;dashed=0;fillColor=#036897;strokeColor=#ffffff;strokeWidth=2;verticalLabelPosition=bottom;verticalAlign=top;align=center;outlineConnect=0;" vertex="1" parent="1">
          <mxGeometry x="490" y="850" width="65" height="40" as="geometry" />
        </mxCell>
        <mxCell id="2kSQM9Ln6HK6JpiItvms-2278" value="" style="shape=mxgraph.cisco.wireless.wlan_controller;sketch=0;html=1;pointerEvents=1;dashed=0;fillColor=#036897;strokeColor=#ffffff;strokeWidth=2;verticalLabelPosition=bottom;verticalAlign=top;align=center;outlineConnect=0;" vertex="1" parent="1">
          <mxGeometry x="669.5" y="850" width="65" height="40" as="geometry" />
        </mxCell>
        <mxCell id="2kSQM9Ln6HK6JpiItvms-2279" value="" style="shape=mxgraph.cisco.wireless.wlan_controller;sketch=0;html=1;pointerEvents=1;dashed=0;fillColor=#036897;strokeColor=#ffffff;strokeWidth=2;verticalLabelPosition=bottom;verticalAlign=top;align=center;outlineConnect=0;" vertex="1" parent="1">
          <mxGeometry x="256.5" y="1160" width="65" height="40" as="geometry" />
        </mxCell>
        <mxCell id="2kSQM9Ln6HK6JpiItvms-2280" value="" style="shape=mxgraph.cisco.wireless.wlan_controller;sketch=0;html=1;pointerEvents=1;dashed=0;fillColor=#036897;strokeColor=#ffffff;strokeWidth=2;verticalLabelPosition=bottom;verticalAlign=top;align=center;outlineConnect=0;" vertex="1" parent="1">
          <mxGeometry x="512" y="1150" width="65" height="40" as="geometry" />
        </mxCell>
        <mxCell id="2kSQM9Ln6HK6JpiItvms-2281" value="" style="shape=mxgraph.cisco.computers_and_peripherals.pc;sketch=0;html=1;pointerEvents=1;dashed=0;fillColor=#036897;strokeColor=#ffffff;strokeWidth=2;verticalLabelPosition=bottom;verticalAlign=top;align=center;outlineConnect=0;" vertex="1" parent="1">
          <mxGeometry x="1060" y="1019" width="108" height="91" as="geometry" />
        </mxCell>
        <mxCell id="2kSQM9Ln6HK6JpiItvms-2282" value="" style="shape=mxgraph.cisco.computers_and_peripherals.pc;sketch=0;html=1;pointerEvents=1;dashed=0;fillColor=#036897;strokeColor=#ffffff;strokeWidth=2;verticalLabelPosition=bottom;verticalAlign=top;align=center;outlineConnect=0;" vertex="1" parent="1">
          <mxGeometry x="1036" y="610" width="108" height="91" as="geometry" />
        </mxCell>
        <mxCell id="2kSQM9Ln6HK6JpiItvms-2283" value="" style="shape=mxgraph.cisco.modems_and_phones.ip_phone;sketch=0;html=1;pointerEvents=1;dashed=0;fillColor=#036897;strokeColor=#ffffff;strokeWidth=2;verticalLabelPosition=bottom;verticalAlign=top;align=center;outlineConnect=0;" vertex="1" parent="1">
          <mxGeometry x="990" y="930" width="120" height="70" as="geometry" />
        </mxCell>
        <mxCell id="2kSQM9Ln6HK6JpiItvms-2284" value="" style="shape=mxgraph.cisco.modems_and_phones.ip_phone;sketch=0;html=1;pointerEvents=1;dashed=0;fillColor=#036897;strokeColor=#ffffff;strokeWidth=2;verticalLabelPosition=bottom;verticalAlign=top;align=center;outlineConnect=0;" vertex="1" parent="1">
          <mxGeometry x="1040" y="720" width="120" height="70" as="geometry" />
        </mxCell>
        <mxCell id="2kSQM9Ln6HK6JpiItvms-2285" value="" style="verticalLabelPosition=bottom;dashed=0;shadow=0;html=1;align=center;verticalAlign=top;shape=mxgraph.cabinets.cabinet;hasStand=1" vertex="1" parent="1">
          <mxGeometry x="1330" y="525" width="460" height="880" as="geometry" />
        </mxCell>
        <mxCell id="2kSQM9Ln6HK6JpiItvms-2286" value="" style="shape=mxgraph.cisco.routers.router;sketch=0;html=1;pointerEvents=1;dashed=0;fillColor=#036897;strokeColor=#ffffff;strokeWidth=2;verticalLabelPosition=bottom;verticalAlign=top;align=center;outlineConnect=0;" vertex="1" parent="1">
          <mxGeometry x="1400" y="600" width="78" height="53" as="geometry" />
        </mxCell>
        <mxCell id="2kSQM9Ln6HK6JpiItvms-2287" value="" style="shape=mxgraph.cisco.routers.router;sketch=0;html=1;pointerEvents=1;dashed=0;fillColor=#036897;strokeColor=#ffffff;strokeWidth=2;verticalLabelPosition=bottom;verticalAlign=top;align=center;outlineConnect=0;" vertex="1" parent="1">
          <mxGeometry x="1400" y="697" width="78" height="53" as="geometry" />
        </mxCell>
        <mxCell id="2kSQM9Ln6HK6JpiItvms-2288" value="" style="shape=mxgraph.cisco.switches.workgroup_switch;sketch=0;html=1;pointerEvents=1;dashed=0;fillColor=#036897;strokeColor=#ffffff;strokeWidth=2;verticalLabelPosition=bottom;verticalAlign=top;align=center;outlineConnect=0;" vertex="1" parent="1">
          <mxGeometry x="1590" y="600" width="101" height="50" as="geometry" />
        </mxCell>
        <mxCell id="2kSQM9Ln6HK6JpiItvms-2289" value="" style="shape=mxgraph.cisco.switches.workgroup_switch;sketch=0;html=1;pointerEvents=1;dashed=0;fillColor=#036897;strokeColor=#ffffff;strokeWidth=2;verticalLabelPosition=bottom;verticalAlign=top;align=center;outlineConnect=0;" vertex="1" parent="1">
          <mxGeometry x="1600" y="697" width="101" height="50" as="geometry" />
        </mxCell>
        <mxCell id="2kSQM9Ln6HK6JpiItvms-2290" value="" style="rounded=1;whiteSpace=wrap;html=1;strokeWidth=2;fillWeight=4;hachureGap=8;hachureAngle=45;fillColor=#1ba1e2;sketch=1;rotation=90;" vertex="1" parent="1">
          <mxGeometry x="1470" y="1110" width="210" height="150" as="geometry" />
        </mxCell>
        <mxCell id="2kSQM9Ln6HK6JpiItvms-2292" value="Patch panel" style="text;strokeColor=none;fillColor=none;html=1;fontSize=24;fontStyle=1;verticalAlign=middle;align=center;" vertex="1" parent="1">
          <mxGeometry x="1520" y="1190" width="110" height="60" as="geometry" />
        </mxCell>
        <mxCell id="2kSQM9Ln6HK6JpiItvms-2300" value="" style="endArrow=classic;html=1;rounded=0;" edge="1" parent="1">
          <mxGeometry relative="1" as="geometry">
            <mxPoint x="1520" y="1140" as="sourcePoint" />
            <mxPoint x="1460" y="750" as="targetPoint" />
            <Array as="points">
              <mxPoint x="1510" y="1060" />
            </Array>
          </mxGeometry>
        </mxCell>
        <mxCell id="2kSQM9Ln6HK6JpiItvms-2301" value="Source" style="edgeLabel;resizable=0;html=1;align=left;verticalAlign=bottom;" connectable="0" vertex="1" parent="2kSQM9Ln6HK6JpiItvms-2300">
          <mxGeometry x="-1" relative="1" as="geometry" />
        </mxCell>
        <mxCell id="2kSQM9Ln6HK6JpiItvms-2302" value="" style="endArrow=classic;html=1;rounded=0;" edge="1" parent="1">
          <mxGeometry relative="1" as="geometry">
            <mxPoint x="1600" y="1136" as="sourcePoint" />
            <mxPoint x="1610" y="734" as="targetPoint" />
          </mxGeometry>
        </mxCell>
        <mxCell id="2kSQM9Ln6HK6JpiItvms-2303" value="Source" style="edgeLabel;resizable=0;html=1;align=left;verticalAlign=bottom;" connectable="0" vertex="1" parent="2kSQM9Ln6HK6JpiItvms-2302">
          <mxGeometry x="-1" relative="1" as="geometry" />
        </mxCell>
        <mxCell id="2kSQM9Ln6HK6JpiItvms-2304" value="" style="sketch=0;points=[[0.015,0.015,0],[0.985,0.015,0],[0.985,0.985,0],[0.015,0.985,0],[0.25,0,0],[0.5,0,0],[0.75,0,0],[1,0.25,0],[1,0.5,0],[1,0.75,0],[0.75,1,0],[0.5,1,0],[0.25,1,0],[0,0.75,0],[0,0.5,0],[0,0.25,0]];verticalLabelPosition=bottom;html=1;verticalAlign=top;aspect=fixed;align=center;pointerEvents=1;shape=mxgraph.cisco19.rect;prIcon=ups;fillColor=#FAFAFA;strokeColor=#005073;" vertex="1" parent="1">
          <mxGeometry x="1680" y="1140" width="80" height="80" as="geometry" />
        </mxCell>
        <mxCell id="2kSQM9Ln6HK6JpiItvms-2307" value="" style="sketch=0;points=[[0.5,0,0],[1,0.5,0],[0.5,1,0],[0,0.5,0],[0.145,0.145,0],[0.8555,0.145,0],[0.855,0.8555,0],[0.145,0.855,0]];verticalLabelPosition=bottom;html=1;verticalAlign=top;aspect=fixed;align=center;pointerEvents=1;shape=mxgraph.cisco19.lock;fillColor=#005073;strokeColor=none;" vertex="1" parent="1">
          <mxGeometry x="1520" y="1330" width="120" height="120" as="geometry" />
        </mxCell>
      </root>
    </mxGraphModel>
  </diagram>
</mxfile>
